<svg id="レイヤー_1" data-name="レイヤー 1" xmlns="http://www.w3.org/2000/svg" viewBox="0 0 503.84 503.84"><defs><style>.cls-1{fill:#5d5d5d;}</style></defs><path class="cls-1" d="M137.06-307.8c-68.41,0-77,.29-103.86,1.51s-45.13,5.49-61.15,11.71a123.38,123.38,0,0,0-44.62,29.06,123.38,123.38,0,0,0-29.06,44.62c-6.23,16-10.49,34.34-11.71,61.15s-1.52,35.45-1.52,103.87.29,77,1.52,103.86,5.48,45.13,11.71,61.16a123.55,123.55,0,0,0,29.06,44.62,123.35,123.35,0,0,0,44.62,29.05c16,6.23,34.33,10.49,61.15,11.71S68.65,196,137.06,196s77-.29,103.87-1.52,45.13-5.48,61.15-11.71a123.35,123.35,0,0,0,44.62-29.05,123.55,123.55,0,0,0,29.06-44.62C382,93.11,386.25,74.8,387.47,48S389,12.54,389-55.88s-.29-77-1.51-103.87S382-204.88,375.76-220.9a123.38,123.38,0,0,0-29.06-44.62,123.38,123.38,0,0,0-44.62-29.06c-16-6.22-34.34-10.48-61.15-11.71s-35.45-1.51-103.87-1.51Zm0,45.39c67.27,0,75.24.25,101.8,1.47,24.56,1.12,37.9,5.22,46.78,8.67a78.05,78.05,0,0,1,29,18.85,78,78,0,0,1,18.84,29c3.45,8.88,7.55,22.22,8.67,46.78,1.22,26.56,1.47,34.53,1.47,101.8s-.25,75.23-1.47,101.8c-1.12,24.56-5.22,37.9-8.67,46.77a78.15,78.15,0,0,1-18.84,29,78,78,0,0,1-29,18.84c-8.88,3.45-22.22,7.56-46.78,8.68-26.56,1.21-34.53,1.47-101.8,1.47s-75.23-.26-101.79-1.47C10.7,148.06-2.63,144-11.51,140.5a78,78,0,0,1-29-18.84,78.15,78.15,0,0,1-18.84-29c-3.45-8.87-7.56-22.21-8.68-46.77-1.21-26.57-1.47-34.54-1.47-101.8s.26-75.24,1.47-101.8c1.12-24.56,5.23-37.9,8.68-46.78a78,78,0,0,1,18.84-29,78.05,78.05,0,0,1,29-18.85c8.88-3.45,22.21-7.55,46.78-8.67,26.56-1.22,34.53-1.47,101.79-1.47" transform="translate(114.86 307.8)"/><path class="cls-1" d="M137.06,28.09a84,84,0,0,1-84-84,84,84,0,0,1,84-84,84,84,0,0,1,84,84,84,84,0,0,1-84,84Zm0-213.34A129.37,129.37,0,0,0,7.7-55.88,129.36,129.36,0,0,0,137.06,73.48,129.37,129.37,0,0,0,266.43-55.88,129.37,129.37,0,0,0,137.06-185.25Z" transform="translate(114.86 307.8)"/><path class="cls-1" d="M301.77-190.36a30.22,30.22,0,0,1-30.23,30.23,30.22,30.22,0,0,1-30.23-30.23,30.23,30.23,0,0,1,30.23-30.23,30.23,30.23,0,0,1,30.23,30.23Z" transform="translate(114.86 307.8)"/></svg>