<svg id="レイヤー_1" data-name="レイヤー 1" xmlns="http://www.w3.org/2000/svg" viewBox="0 0 141.73 115.65"><defs><style>.cls-1{fill:#5f5f5f;}.cls-2{fill:gray;}.cls-3{fill:#fdfdfd;}.cls-4{fill:#fafafa;}</style></defs><path class="cls-1" d="M54,155.66V43.72H195.68V155.66ZM70.15,52l55.07,44.2L181.31,52Z" transform="translate(-53.95 -43.72)"/><path class="cls-2" d="M54,155.66H195.68c-.62,1.25-1.24,3.58-1.86,3.58q-69,.25-138,0C55.19,159.24,54.57,156.91,54,155.66Z" transform="translate(-53.95 -43.72)"/><path class="cls-3" d="M116.21,97.91c9.52,7.38,9.52,7.38,18.9,0,17.38-13.74,34.64-27.63,53.92-43,0,10.93,0,19.31,0,27.7,0,19.26.13,38.52-.21,57.77-.17,9.67-1.2,10.8-10.84,10.85q-53.1.27-106.19-.13c-9.71-.07-11-1.31-11.07-10.71-.21-26.09,0-52.18.22-78.28,0-3.42,0-6.13,0-7.2l55.26,43.05a10.9,10.9,0,0,0,9.59,5.47c6.1-.08,9.17-5.27,9.31-5.51l53.92-43q0,13.85,0,27.7,0,28.88-.21,57.77l-1.89,9.06-9,1.79-106.19-.13-9.21-1.92-1.86-8.79" transform="translate(-53.95 -43.72)"/><path class="cls-4" d="M70.15,52H181.31l-56.09,44.2Z" transform="translate(-53.95 -43.72)"/></svg>